<?xml version="1.0" standalone="no"?>
<!DOCTYPE svg PUBLIC "-//W3C//DTD SVG 20010904//EN"
 "http://www.w3.org/TR/2001/REC-SVG-20010904/DTD/svg10.dtd">
<svg version="1.0" xmlns="http://www.w3.org/2000/svg"
 width="500.000000pt" height="500.000000pt" viewBox="0 0 500.000000 500.000000"
 preserveAspectRatio="xMidYMid meet">
<metadata>
Created by potrace 1.16, written by Peter Selinger 2001-2019
</metadata>
<g transform="translate(0.000000,500.000000) scale(0.100000,-0.100000)"
fill="#000000" stroke="none">
<path d="M2215 4799 c-524 -70 -982 -295 -1351 -663 -347 -347 -558 -755 -650
-1261 -27 -145 -27 -605 0 -750 92 -506 303 -914 650 -1261 347 -347 755 -558
1261 -650 145 -27 605 -27 750 0 506 92 914 303 1261 650 347 347 558 755 650
1261 27 145 27 605 0 750 -92 506 -303 914 -650 1261 -346 346 -757 558 -1256
649 -111 20 -549 30 -665 14z m140 -1211 c4 -40 12 -153 18 -251 7 -101 16
-178 22 -179 11 -1 45 53 106 171 22 42 44 83 49 91 5 8 28 51 51 95 23 44 50
95 61 113 l20 32 168 0 168 0 -27 -49 c-14 -28 -73 -133 -131 -235 -115 -203
-149 -267 -150 -278 0 -5 15 -8 33 -8 17 0 27 -4 22 -8 -6 -4 -55 -88 -110
-187 -54 -99 -101 -182 -105 -185 -3 -3 -14 -24 -24 -47 l-19 -42 -168 -3
-168 -3 -5 55 c-3 30 -8 87 -11 125 -3 39 -10 88 -15 110 -5 22 -12 75 -15
118 l-7 77 -32 0 -33 0 -2 58 c-1 31 -6 71 -11 87 -7 23 -41 363 -40 408 0 4
78 7 174 7 l174 0 7 -72z m-1003 -1348 c4 -25 21 -144 38 -265 17 -121 33
-222 35 -224 8 -8 14 26 40 229 14 113 29 228 33 255 l7 50 73 3 72 3 0 -28
c0 -25 -20 -187 -51 -413 -5 -41 -16 -127 -24 -190 -54 -426 -65 -494 -77
-501 -16 -11 -119 -11 -135 -1 -7 5 -21 70 -32 152 -11 80 -25 177 -31 215 -5
39 -17 120 -25 180 -8 61 -20 142 -26 180 -33 228 -54 396 -50 401 3 3 37 3
75 2 l71 -3 7 -45z m663 34 c93 -32 145 -113 145 -224 l0 -41 -72 3 -73 3 -6
44 c-4 29 -14 51 -28 63 -30 23 -42 23 -69 -2 -22 -21 -22 -23 -22 -400 l0
-379 22 -15 c56 -40 98 -3 98 84 l0 60 75 0 75 0 0 -62 c0 -92 -16 -137 -64
-183 -83 -80 -199 -85 -282 -13 -75 66 -74 58 -74 513 0 354 2 410 16 438 30
59 76 97 144 118 39 12 63 10 115 -7z m606 -19 c5 -16 19 -95 33 -175 30 -173
67 -382 101 -580 60 -338 59 -331 44 -341 -16 -10 -83 -12 -115 -3 -18 5 -23
18 -33 87 -33 223 -46 293 -55 299 -6 4 -41 8 -78 8 -82 0 -71 27 -109 -285
-7 -60 -16 -94 -27 -102 -21 -17 -117 -17 -129 0 -6 8 5 109 33 292 24 154 57
370 73 480 17 110 35 235 42 278 l12 78 100 -3 101 -3 7 -30z m568 9 c34 -17
62 -41 79 -67 l27 -41 0 -305 c0 -168 -3 -318 -8 -334 -4 -15 -23 -45 -42 -65
l-34 -38 44 -120 c25 -65 45 -125 45 -132 0 -10 -19 -12 -77 -10 l-77 3 -15
40 c-60 167 -73 196 -89 193 -14 -3 -16 -17 -13 -100 4 -132 -1 -140 -87 -136
l-67 3 -3 555 c-1 305 0 561 3 568 3 9 39 12 133 12 118 0 132 -2 181 -26z
m474 6 c61 -23 109 -65 140 -124 22 -40 22 -50 22 -431 l0 -390 -29 -48 c-57
-95 -140 -130 -302 -125 l-99 3 -3 568 -2 567 110 0 c85 0 121 -4 163 -20z"/>
<path d="M2510 2033 c0 -21 -6 -78 -14 -128 -8 -49 -17 -116 -21 -147 l-6 -58
55 0 c40 0 56 4 56 13 0 7 -11 90 -25 183 -14 93 -25 170 -25 172 0 1 -4 2
-10 2 -5 0 -10 -17 -10 -37z"/>
<path d="M3030 2130 c0 -5 0 -136 0 -290 0 -154 0 -284 0 -290 0 -14 94 -12
108 2 9 9 12 86 12 283 0 251 -1 273 -18 288 -20 19 -102 24 -102 7z"/>
<path d="M3540 1720 l0 -410 45 0 c49 0 80 21 90 62 3 13 5 178 3 366 l-3 344
-28 24 c-19 17 -40 24 -68 24 l-39 0 0 -410z"/>
</g>
</svg>
